# xmcd
#
# Track frame offsets: 
#        182
#        7185
#        13447
#        21065
#        29717
#        37215
#        46342
#        55647
#        63045
#        70990
#        79272
#        87262
#        95760
#        103757
#        114640
#        120845
#        128667
#        138662
#        146125
#        153662
#
# Disc length: 2159 seconds
#
# Revision: 1
# Processed by: cddbd v1.5.2PL0 Copyright (c) Steve Scherf et al.
# Submitted via: ExactAudioCopy v0.95b4
#
DISCID=20086d14
DTITLE=Various Artist - Bluegrass Bible ( Disc1 )
DYEAR=2005
DGENRE=Bluegrass
TTITLE0=A Beautiful Life
TTITLE1=Working On A Building
TTITLE2=Lonesome Valley
TTITLE3=This World Can't Stand Long
TTITLE4=I'll Be No Stranger There
TTITLE5=Jordan
TTITLE6=Wayfaring Stranger
TTITLE7=Prayer Bells of Heaven
TTITLE8=Gloryland Way
TTITLE9=The Voice of My Saviour
TTITLE10=I Am A Pilgrim
TTITLE11=Just Over In Glory Land
TTITLE12=Farther On
TTITLE13=Drifting Too Far From The Shore
TTITLE14=Walking In The Light Of The Lord
TTITLE15=Where You Gonna Hide
TTITLE16=I'm A Man of Constant Sorrow
TTITLE17=Heavenly Light Is Shining On Me
TTITLE18=Cup Of Lonliness
TTITLE19=Let The Church Roll On
EXTD=
EXTT0=
EXTT1=
EXTT2=
EXTT3=
EXTT4=
EXTT5=
EXTT6=
EXTT7=
EXTT8=
EXTT9=
EXTT10=
EXTT11=
EXTT12=
EXTT13=
EXTT14=
EXTT15=
EXTT16=
EXTT17=
EXTT18=
EXTT19=
PLAYORDER=
